<svg width="187" height="58" viewBox="0 0 187 58" fill="none" xmlns="http://www.w3.org/2000/svg">
<g clip-path="url(#clip0_2_74)">
<path d="M17.088 27.44L12.552 36.608H10.32L5.808 27.44V38H2.064V21.224H7.128L11.448 30.44L15.792 21.224H20.832V38H17.088V27.44ZM35.8864 36.128C34.4304 37.504 32.7184 38.192 30.7504 38.192C28.7984 38.192 27.1824 37.592 25.9024 36.392C24.6224 35.176 23.9824 33.552 23.9824 31.52C23.9824 29.488 24.6304 27.872 25.9264 26.672C27.2384 25.472 28.7824 24.872 30.5584 24.872C32.3344 24.872 33.8384 25.408 35.0704 26.48C36.3184 27.552 36.9424 29.024 36.9424 30.896V32.816H27.5344C27.6464 33.52 28.0144 34.096 28.6384 34.544C29.2624 34.992 29.9664 35.216 30.7504 35.216C32.0144 35.216 33.0544 34.792 33.8704 33.944L35.8864 36.128ZM33.2944 30.248C33.2144 29.48 32.9264 28.888 32.4304 28.472C31.9344 28.056 31.3264 27.848 30.6064 27.848C29.9024 27.848 29.2544 28.064 28.6624 28.496C28.0704 28.928 27.7264 29.512 27.6304 30.248H33.2944ZM44.7984 38.192C43.2784 38.192 41.9184 37.544 40.7184 36.248C39.5184 34.952 38.9184 33.344 38.9184 31.424C38.9184 29.504 39.5024 27.936 40.6704 26.72C41.8384 25.488 43.2064 24.872 44.7744 24.872C46.3424 24.872 47.6224 25.424 48.6144 26.528V20.192H52.2144V38H48.6144V36.296C47.6064 37.56 46.3344 38.192 44.7984 38.192ZM42.5424 31.568C42.5424 32.608 42.8544 33.464 43.4784 34.136C44.1024 34.792 44.8304 35.12 45.6624 35.12C46.4944 35.12 47.1984 34.792 47.7744 34.136C48.3664 33.464 48.6624 32.608 48.6624 31.568C48.6624 30.512 48.3664 29.64 47.7744 28.952C47.1984 28.248 46.4864 27.896 45.6384 27.896C44.7904 27.896 44.0624 28.248 43.4544 28.952C42.8464 29.656 42.5424 30.528 42.5424 31.568ZM59.3227 38H55.7227V25.088H59.3227V38ZM56.0107 23.456C55.6107 23.04 55.4107 22.536 55.4107 21.944C55.4107 21.352 55.6107 20.856 56.0107 20.456C56.4267 20.04 56.9307 19.832 57.5227 19.832C58.1147 19.832 58.6107 20.04 59.0107 20.456C59.4267 20.856 59.6347 21.352 59.6347 21.944C59.6347 22.536 59.4267 23.04 59.0107 23.456C58.6107 23.856 58.1147 24.056 57.5227 24.056C56.9307 24.056 56.4267 23.856 56.0107 23.456ZM69.0226 35C70.2226 35 71.3026 34.4 72.2626 33.2L74.3986 35.6C72.7346 37.328 70.9346 38.192 68.9986 38.192C67.0626 38.192 65.4226 37.584 64.0786 36.368C62.7506 35.136 62.0866 33.536 62.0866 31.568C62.0866 29.584 62.7586 27.976 64.1026 26.744C65.4626 25.496 67.0706 24.872 68.9266 24.872C69.8546 24.872 70.7906 25.064 71.7346 25.448C72.6946 25.832 73.5346 26.4 74.2546 27.152L72.3826 29.6C71.9666 29.104 71.4546 28.72 70.8466 28.448C70.2546 28.176 69.6626 28.04 69.0706 28.04C68.1266 28.04 67.3106 28.352 66.6226 28.976C65.9506 29.584 65.6146 30.44 65.6146 31.544C65.6146 32.632 65.9506 33.48 66.6226 34.088C67.3106 34.696 68.1106 35 69.0226 35ZM87.8673 38H84.4833V36.44C83.5553 37.608 82.4033 38.192 81.0273 38.192C79.6673 38.192 78.5233 37.8 77.5953 37.016C76.6673 36.216 76.2033 35.16 76.2033 33.848C76.2033 32.52 76.6833 31.528 77.6433 30.872C78.6033 30.216 79.9153 29.888 81.5793 29.888H84.2673V29.816C84.2673 28.44 83.5393 27.752 82.0833 27.752C81.4593 27.752 80.7953 27.88 80.0913 28.136C79.4033 28.376 78.8193 28.68 78.3393 29.048L76.7313 26.72C78.4273 25.488 80.3633 24.872 82.5393 24.872C84.1073 24.872 85.3873 25.264 86.3793 26.048C87.3713 26.832 87.8673 28.072 87.8673 29.768V38ZM84.2433 33.08V32.456H81.9873C80.5473 32.456 79.8273 32.904 79.8273 33.8C79.8273 34.264 79.9953 34.624 80.3313 34.88C80.6833 35.12 81.1793 35.24 81.8193 35.24C82.4593 35.24 83.0193 35.048 83.4993 34.664C83.9953 34.264 84.2433 33.736 84.2433 33.08ZM94.8493 38H91.2493V20.192H94.8493V38ZM105.145 21.224H108.889V38H105.145V21.224ZM116.243 30.8V38H112.643V25.088H116.243V26.528C117.331 25.424 118.555 24.872 119.915 24.872C121.275 24.872 122.411 25.352 123.323 26.312C124.251 27.272 124.715 28.552 124.715 30.152V38H121.115V30.704C121.115 28.72 120.387 27.728 118.931 27.728C118.211 27.728 117.579 27.992 117.035 28.52C116.507 29.032 116.243 29.792 116.243 30.8ZM137.791 33.992C137.791 35.256 137.319 36.272 136.375 37.04C135.447 37.808 134.263 38.192 132.823 38.192C131.863 38.192 130.863 38.024 129.823 37.688C128.783 37.336 127.847 36.824 127.015 36.152L128.599 33.896C129.943 34.936 131.375 35.456 132.895 35.456C133.359 35.456 133.727 35.368 133.999 35.192C134.271 35 134.407 34.752 134.407 34.448C134.407 34.144 134.215 33.864 133.831 33.608C133.463 33.352 132.919 33.112 132.199 32.888C131.495 32.664 130.951 32.472 130.567 32.312C130.199 32.152 129.775 31.92 129.295 31.616C128.319 31.008 127.831 30.112 127.831 28.928C127.831 27.728 128.311 26.752 129.271 26C130.231 25.248 131.471 24.872 132.991 24.872C134.511 24.872 136.031 25.384 137.551 26.408L136.207 28.808C135.087 28.04 133.967 27.656 132.847 27.656C131.743 27.656 131.191 27.96 131.191 28.568C131.191 28.904 131.367 29.168 131.719 29.36C132.071 29.552 132.655 29.776 133.471 30.032C134.287 30.288 134.863 30.488 135.199 30.632C135.551 30.76 135.967 30.968 136.447 31.256C137.343 31.8 137.791 32.712 137.791 33.992ZM144.842 27.68V33.464C144.842 33.96 144.97 34.352 145.226 34.64C145.482 34.912 145.786 35.048 146.138 35.048C146.81 35.048 147.378 34.744 147.842 34.136L149.186 36.656C148.066 37.68 146.882 38.192 145.634 38.192C144.402 38.192 143.354 37.784 142.49 36.968C141.642 36.152 141.218 35.04 141.218 33.632V27.68H139.706V25.088H141.218V21.224H144.842V25.088H147.962V27.68H144.842ZM162.184 38H158.8V36.44C157.872 37.608 156.72 38.192 155.344 38.192C153.984 38.192 152.84 37.8 151.912 37.016C150.984 36.216 150.52 35.16 150.52 33.848C150.52 32.52 151 31.528 151.96 30.872C152.92 30.216 154.232 29.888 155.896 29.888H158.584V29.816C158.584 28.44 157.856 27.752 156.4 27.752C155.776 27.752 155.112 27.88 154.408 28.136C153.72 28.376 153.136 28.68 152.656 29.048L151.048 26.72C152.744 25.488 154.68 24.872 156.856 24.872C158.424 24.872 159.704 25.264 160.696 26.048C161.688 26.832 162.184 28.072 162.184 29.768V38ZM158.56 33.08V32.456H156.304C154.864 32.456 154.144 32.904 154.144 33.8C154.144 34.264 154.312 34.624 154.648 34.88C155 35.12 155.496 35.24 156.136 35.24C156.776 35.24 157.336 35.048 157.816 34.664C158.312 34.264 158.56 33.736 158.56 33.08ZM169.167 30.8V38H165.567V25.088H169.167V26.528C170.255 25.424 171.479 24.872 172.839 24.872C174.199 24.872 175.335 25.352 176.247 26.312C177.175 27.272 177.639 28.552 177.639 30.152V38H174.039V30.704C174.039 28.72 173.311 27.728 171.855 27.728C171.135 27.728 170.503 27.992 169.959 28.52C169.431 29.032 169.167 29.792 169.167 30.8ZM185.103 27.68V33.464C185.103 33.96 185.231 34.352 185.487 34.64C185.743 34.912 186.047 35.048 186.399 35.048C187.071 35.048 187.639 34.744 188.103 34.136L189.447 36.656C188.327 37.68 187.143 38.192 185.895 38.192C184.663 38.192 183.615 37.784 182.751 36.968C181.903 36.152 181.479 35.04 181.479 33.632V27.68H179.967V25.088H181.479V21.224H185.103V25.088H188.223V27.68H185.103Z" fill="white"/>
</g>
<defs>
<clipPath id="clip0_2_74">
<rect width="187" height="58" fill="white"/>
</clipPath>
</defs>
</svg>
