<svg width="132" height="23" viewBox="0 0 132 23" fill="none" xmlns="http://www.w3.org/2000/svg">
<g clip-path="url(#clip0_2_534)">
<path d="M21.0969 8.41939C21.0392 8.24958 20.9331 8.10037 20.7916 7.99018C20.6501 7.87999 20.4795 7.81365 20.3007 7.79934L15.0716 7.38383L12.8087 2.37482C12.7367 2.21349 12.6195 2.07646 12.4712 1.98028C12.323 1.88409 12.1501 1.83286 11.9734 1.83276C11.7968 1.83267 11.6238 1.88371 11.4755 1.97973C11.3272 2.07575 11.2098 2.21265 11.1375 2.3739L8.87473 7.38383L3.64558 7.79934C3.46989 7.81326 3.30193 7.8775 3.16179 7.98438C3.02165 8.09125 2.91527 8.23624 2.85537 8.40199C2.79548 8.56774 2.7846 8.74724 2.82405 8.91901C2.8635 9.09078 2.9516 9.24755 3.07781 9.37056L6.94212 13.1376L5.57544 19.0556C5.53394 19.2348 5.54724 19.4222 5.61361 19.5937C5.67999 19.7652 5.79637 19.9128 5.94765 20.0173C6.09894 20.1218 6.27815 20.1785 6.46202 20.1799C6.6459 20.1813 6.82594 20.1274 6.97881 20.0252L11.9731 16.6956L16.9675 20.0252C17.1237 20.1289 17.308 20.1823 17.4955 20.1782C17.683 20.1741 17.8647 20.1126 18.0162 20.0022C18.1678 19.8917 18.2819 19.7374 18.3431 19.5602C18.4044 19.3829 18.4099 19.1912 18.3589 19.0107L16.6813 13.1404L20.8419 9.39625C21.1143 9.15043 21.2143 8.76702 21.0969 8.41939Z" fill="#F3CD03"/>
<path d="M48.1115 8.41939C48.0539 8.24958 47.9478 8.10037 47.8063 7.99018C47.6648 7.87999 47.4941 7.81365 47.3154 7.79934L42.0862 7.38383L39.8234 2.37482C39.7513 2.21349 39.6341 2.07646 39.4859 1.98028C39.3377 1.88409 39.1648 1.83286 38.9881 1.83276C38.8114 1.83267 38.6385 1.88371 38.4901 1.97973C38.3418 2.07575 38.2244 2.21265 38.1522 2.3739L35.8894 7.38383L30.6602 7.79934C30.4845 7.81326 30.3166 7.8775 30.1764 7.98438C30.0363 8.09125 29.9299 8.23624 29.87 8.40199C29.8101 8.56774 29.7993 8.74724 29.8387 8.91901C29.8781 9.09078 29.9662 9.24755 30.0925 9.37056L33.9568 13.1376L32.5901 19.0556C32.5486 19.2348 32.5619 19.4222 32.6283 19.5937C32.6946 19.7652 32.811 19.9128 32.9623 20.0173C33.1136 20.1218 33.2928 20.1785 33.4767 20.1799C33.6605 20.1813 33.8406 20.1274 33.9935 20.0252L38.9878 16.6956L43.9821 20.0252C44.1384 20.1289 44.3226 20.1823 44.5101 20.1782C44.6976 20.1741 44.8794 20.1126 45.0309 20.0022C45.1824 19.8917 45.2965 19.7374 45.3578 19.5602C45.419 19.3829 45.4246 19.1912 45.3736 19.0107L43.696 13.1404L47.8565 9.39625C48.129 9.15043 48.2289 8.76702 48.1115 8.41939Z" fill="#F3CD03"/>
<path d="M75.1223 8.41939C75.0646 8.24958 74.9585 8.10037 74.817 7.99018C74.6755 7.87999 74.5049 7.81365 74.3261 7.79934L69.097 7.38383L66.8341 2.37482C66.7621 2.21349 66.6449 2.07646 66.4966 1.98028C66.3484 1.88409 66.1755 1.83286 65.9988 1.83276C65.8221 1.83267 65.6492 1.88371 65.5009 1.97973C65.3525 2.07575 65.2352 2.21265 65.1629 2.3739L62.9001 7.38383L57.671 7.79934C57.4953 7.81326 57.3273 7.8775 57.1872 7.98438C57.047 8.09125 56.9407 8.23624 56.8808 8.40199C56.8209 8.56774 56.81 8.74724 56.8494 8.91901C56.8889 9.09078 56.977 9.24755 57.1032 9.37056L60.9675 13.1376L59.6008 19.0556C59.5593 19.2348 59.5726 19.4222 59.639 19.5937C59.7054 19.7652 59.8218 19.9128 59.973 20.0173C60.1243 20.1218 60.3035 20.1785 60.4874 20.1799C60.6713 20.1813 60.8513 20.1274 61.0042 20.0252L65.9985 16.6956L70.9929 20.0252C71.1491 20.1289 71.3334 20.1823 71.5209 20.1782C71.7084 20.1741 71.8901 20.1126 72.0416 20.0022C72.1932 19.8917 72.3073 19.7374 72.3685 19.5602C72.4298 19.3829 72.4353 19.1912 72.3843 19.0107L70.7067 13.1404L74.8673 9.39625C75.1397 9.15043 75.2397 8.76702 75.1223 8.41939Z" fill="#F3CD03"/>
<path d="M102.137 8.41939C102.079 8.24958 101.973 8.10037 101.832 7.99018C101.69 7.87999 101.52 7.81365 101.341 7.79934L96.1116 7.38383L93.8488 2.37482C93.7767 2.21349 93.6595 2.07646 93.5113 1.98028C93.3631 1.88409 93.1902 1.83286 93.0135 1.83276C92.8368 1.83267 92.6638 1.88371 92.5155 1.97973C92.3672 2.07575 92.2498 2.21265 92.1776 2.3739L89.9148 7.38383L84.6856 7.79934C84.5099 7.81326 84.342 7.8775 84.2018 7.98438C84.0617 8.09125 83.9553 8.23624 83.8954 8.40199C83.8355 8.56774 83.8246 8.74724 83.8641 8.91901C83.9035 9.09078 83.9916 9.24755 84.1178 9.37056L87.9822 13.1376L86.6155 19.0556C86.574 19.2348 86.5873 19.4222 86.6537 19.5937C86.72 19.7652 86.8364 19.9128 86.9877 20.0173C87.139 20.1218 87.3182 20.1785 87.5021 20.1799C87.6859 20.1813 87.866 20.1274 88.0188 20.0252L93.0132 16.6956L98.0075 20.0252C98.1638 20.1289 98.348 20.1823 98.5355 20.1782C98.723 20.1741 98.9047 20.1126 99.0563 20.0022C99.2078 19.8917 99.3219 19.7374 99.3832 19.5602C99.4444 19.3829 99.4499 19.1912 99.399 19.0107L97.7213 13.1404L101.882 9.39625C102.154 9.15043 102.254 8.76702 102.137 8.41939Z" fill="#F3CD03"/>
<path d="M114.998 13.1377L113.631 19.0557C113.589 19.2349 113.601 19.4227 113.667 19.5945C113.734 19.7664 113.85 19.9143 114.001 20.0191C114.153 20.1238 114.332 20.1804 114.516 20.1814C114.701 20.1825 114.881 20.1281 115.033 20.0252L120.028 16.6956L125.022 20.0252C125.178 20.1289 125.363 20.1823 125.55 20.1782C125.738 20.1741 125.919 20.1127 126.071 20.0022C126.222 19.8917 126.337 19.7375 126.398 19.5602C126.459 19.383 126.465 19.1912 126.414 19.0107L124.736 13.1404L128.897 9.39628C129.03 9.27629 129.125 9.11988 129.17 8.94638C129.216 8.77289 129.209 8.58992 129.151 8.4201C129.094 8.25029 128.988 8.10107 128.846 7.99091C128.705 7.88075 128.534 7.81448 128.355 7.80029L123.126 7.38386L120.863 2.37485C120.791 2.21356 120.674 2.0766 120.526 1.98049C120.377 1.88439 120.205 1.83325 120.028 1.83325C119.851 1.83325 119.678 1.88439 119.53 1.98049C119.382 2.0766 119.264 2.21356 119.192 2.37485L116.929 7.38386L111.7 7.79937C111.525 7.81329 111.357 7.87753 111.216 7.98441C111.076 8.09128 110.97 8.23627 110.91 8.40202C110.85 8.56777 110.839 8.74727 110.879 8.91904C110.918 9.09081 111.006 9.24758 111.132 9.37059L114.998 13.1377ZM117.615 9.16972C117.778 9.15682 117.936 9.10012 118.07 9.00555C118.204 8.91098 118.31 8.78203 118.378 8.63222L120.028 4.98071L121.678 8.63222C121.745 8.78203 121.852 8.91098 121.986 9.00555C122.12 9.10012 122.277 9.15682 122.441 9.16972L126.084 9.45865L123.084 12.159C122.824 12.3938 122.72 12.7552 122.815 13.0927L123.965 17.1148L120.538 14.83C120.387 14.729 120.21 14.6751 120.029 14.6751C119.848 14.6751 119.671 14.729 119.521 14.83L115.94 17.2175L116.903 13.0478C116.938 12.8944 116.933 12.7346 116.889 12.5836C116.845 12.4326 116.762 12.2955 116.65 12.1856L113.863 9.46874L117.615 9.16972Z" fill="#F3CD03"/>
</g>
<defs>
<clipPath id="clip0_2_534">
<rect width="130.068" height="22.0136" fill="white" transform="translate(0.96582)"/>
</clipPath>
</defs>
</svg>
